<svg width="91" height="75" viewBox="0 0 91 75" fill="none" xmlns="http://www.w3.org/2000/svg">
<path fill-rule="evenodd" clip-rule="evenodd" d="M50.1326 0.957323V3.03701C50.1326 3.32305 50.0096 3.59532 49.7973 3.78705C48.254 5.18108 47.3778 6.16351 46.0474 7.71117C45.8652 7.92304 45.6831 8.08957 45.4133 8.01723C45.1294 7.94113 44.9072 7.59398 44.8806 7.30133C44.6259 4.507 44.715 3.60202 44.8283 2.45076C44.8364 2.36894 44.8445 2.28588 44.8527 2.2008C44.8999 1.71052 45.286 1.31654 45.7767 1.27387L46.6433 1.19851C46.9119 1.17515 47.1551 1.03968 47.3423 0.845592C47.8056 0.365307 48.289 0.108677 49.1301 0.00642963C49.68 -0.0604147 50.1326 0.4034 50.1326 0.957323ZM24.4604 14.8094C25.5595 16.363 26.4953 17.3424 27.9496 18.4532C28.5034 18.8761 29.2753 18.5667 29.5866 17.9433C29.6679 17.7804 29.7638 17.6084 29.8809 17.4169C29.9815 17.2522 30.1549 17.1464 30.3467 17.125L30.4094 17.1181C30.6823 17.0878 30.8726 16.8797 30.9509 16.6165C31.0041 16.4373 31.1768 16.3033 31.3612 16.2726L31.9691 16.1713C32.1099 16.1478 32.2442 16.0943 32.3629 16.0149C33.7454 15.09 34.678 14.5179 35.9917 13.712L35.9918 13.712L35.9918 13.7119L35.9919 13.7119L35.9921 13.7118C36.1848 13.5935 36.3858 13.4702 36.5977 13.34C36.6917 13.2822 36.7954 13.2403 36.9028 13.2153C38.0261 12.9534 38.6484 12.7038 39.5706 12.2143C39.6669 12.1632 39.771 12.127 39.8786 12.1092C40.5534 11.9974 41.0168 11.9427 41.8523 11.9483C41.9771 11.9491 42.1018 11.9281 42.2184 11.8837C43.0378 11.5715 43.469 11.3567 43.8085 11.0865C43.9982 10.9356 44.0955 10.7 44.1092 10.4579C44.3253 6.6346 44.23 4.76421 43.6161 3.35002C43.4315 2.92493 42.9385 2.75013 42.5021 2.90611C41.5734 3.23808 40.8521 3.55628 39.7752 4.06596C39.6746 4.11358 39.5666 4.14444 39.4559 4.15648C38.7041 4.23826 38.2237 4.27861 37.5407 4.31265C37.3813 4.3206 37.2257 4.36631 37.0862 4.44381C35.6723 5.22897 34.5351 5.58106 32.5941 6.14573C32.5067 6.17117 32.4148 6.18468 32.3237 6.18558C30.2064 6.20634 28.9676 6.2074 27.2604 6.19107C26.8613 6.18725 26.499 6.42144 26.33 6.78294C25.9829 7.5254 25.7072 8.02683 25.3288 8.63503C25.1927 8.85372 24.9743 9.00741 24.7249 9.07175C23.3075 9.43742 22.5102 9.77778 21.7506 10.3258C21.3887 10.5869 21.3613 11.1092 21.6889 11.4122C22.6904 12.3386 23.7424 12.902 24.8149 13.2765C25.235 13.4232 25.1818 14.1977 24.738 14.2294C24.4506 14.2499 24.2941 14.5742 24.4604 14.8094ZM14.5737 34.4938C13.0724 33.6287 12.0773 32.9654 10.6776 31.7816C10.454 31.5926 10.3269 31.3123 10.3326 31.0195C10.3488 30.1789 10.3946 29.6773 10.4951 29.2147C10.5552 28.9381 10.5211 28.6467 10.3728 28.4056L10.1301 28.0113C9.96157 27.7375 9.935 27.3993 10.0587 27.1026L10.283 26.5641C10.3121 26.4943 10.3334 26.4215 10.3453 26.3468C10.3898 26.0673 10.411 25.8486 10.4003 25.6136C10.3847 25.2708 10.4861 24.9246 10.7444 24.6987L10.8648 24.5932C10.9957 24.4787 11.0708 24.3133 11.0708 24.1394C11.0708 23.7011 11.528 23.4028 11.9042 23.6277C12.0109 23.6915 12.1144 23.7586 12.2187 23.8319C12.6234 24.1166 13.2006 24.0829 13.4621 23.6627C13.5767 23.4786 13.6847 23.2828 13.8051 23.0393C13.8426 22.9636 13.8693 22.8826 13.8858 22.7998C14.1724 21.363 14.3601 20.556 14.6429 19.8938C14.7294 19.6914 14.9191 19.5555 15.1362 19.5193L15.7422 19.4183C16.0448 19.3679 16.1638 18.9965 15.9469 18.7797C15.8165 18.6493 15.7995 18.4438 15.9067 18.2938L16.0584 18.0814C16.1414 17.9652 16.186 17.826 16.186 17.6832V17.1916C16.186 17.0005 16.294 16.8257 16.465 16.7402C16.636 16.6547 16.744 16.4799 16.744 16.2887V16.2257C16.744 15.9115 16.9904 15.6695 17.2893 15.5726C17.5368 15.4923 17.7337 15.3567 17.959 15.1161C18.0179 15.0532 18.0656 14.9805 18.1034 14.903C18.3078 14.4844 18.4301 14.1886 18.4345 13.7604C18.4366 13.5508 18.4734 13.3401 18.5803 13.1599C18.8833 12.6487 19.1382 12.2792 19.46 11.921C19.7983 11.5445 20.3785 11.5506 20.7544 11.8896C22.0828 13.0874 22.9904 14.0061 24.2334 15.4587C24.407 15.6616 24.2333 15.9739 23.9663 15.9734C23.5769 15.9728 23.3698 16.6847 23.7136 16.8676L26.783 18.5013C26.8483 18.5361 26.908 18.5809 26.9592 18.6343C27.3309 19.0211 27.5768 19.3091 27.7792 19.6324C27.9833 19.9585 27.8286 20.3619 27.5542 20.6316C27.3543 20.8281 27.0825 20.9339 26.8036 20.9055C26.6016 20.8849 26.4316 20.8841 26.2579 20.9022C25.9992 20.9292 25.7788 21.0948 25.6379 21.3135C25.4074 21.6712 25.1908 22.0093 24.9834 22.3331L24.9824 22.3348L24.9823 22.335C23.692 24.3496 22.7554 25.812 21.0117 28.0064C20.8975 28.1501 20.8235 28.3225 20.8011 28.5047C20.7186 29.1784 20.6786 29.6636 20.6606 30.2763C20.6505 30.6208 20.471 30.9387 20.1794 31.1225C18.7623 32.0153 17.6098 32.8725 15.6924 34.4049C15.3728 34.6604 14.9283 34.6981 14.5737 34.4938ZM10.5642 32.6763C11.6558 33.3034 12.4909 33.8782 13.5122 34.7552C13.9569 35.137 13.9553 35.8218 13.5165 36.2104C12.5227 37.0903 11.734 37.719 10.8035 38.3744C10.2258 38.7814 9.42239 38.4489 9.3457 37.7464C9.27333 37.0835 9.25675 36.4142 9.28462 35.5177C9.29445 35.2017 9.14922 34.9055 8.9473 34.6623C8.81421 34.502 8.70414 34.3176 8.74567 34.1785C8.83752 33.8709 9.48889 33.1345 9.4897 33.2485C9.489 32.6952 10.0844 32.4007 10.5642 32.6763ZM0.361229 68.5618C2.48221 68.3444 5.75186 68.2189 5.86253 68.3111L5.88556 68.3283C6.1081 68.4952 6.39584 68.5757 6.65237 68.4681L6.68332 68.4549C6.87805 68.3701 7.11909 68.3325 7.32115 68.398C7.60266 68.4892 7.89114 68.5348 8.14859 68.3889C8.18539 68.368 8.22119 68.3465 8.25653 68.3241C8.57849 68.1194 8.97578 68.0174 9.31628 68.1894C9.47478 68.2695 9.61968 68.3559 9.7649 68.4617C10.1255 68.7242 10.6085 68.8332 10.9758 68.5802C11.0962 68.4973 11.2001 68.4145 11.2953 68.3247C11.5287 68.1047 11.8187 67.939 12.1394 67.939H19.3482C19.7499 67.8862 20.0025 67.8179 20.3807 67.6488C20.4979 67.5963 20.6239 67.563 20.7521 67.5552C23.4496 67.3908 25.0663 67.2751 27.7407 66.8759C27.9667 66.8422 28.1964 66.8899 28.4032 66.9872C28.808 67.1777 29.1974 67.2782 29.5251 67.3173C30.0426 67.3792 30.1179 66.9245 29.7166 66.592C28.1321 65.2794 26.7192 64.4741 25.1256 63.5659L25.1256 63.5659C24.3834 63.1429 23.602 62.6976 22.7458 62.1683C22.6519 62.1102 22.5484 62.0671 22.4408 62.0423L21.7997 61.8943C21.541 61.8346 21.307 61.7037 21.2475 61.445C21.1831 61.1648 21.3384 60.8594 21.5557 60.6712C22.3815 59.9559 23.0675 59.2153 24.0395 58.1657L24.0397 58.1656L24.3281 57.8543C24.4149 57.7607 24.4634 57.6376 24.4634 57.5099C24.4634 57.2523 24.2698 57.0337 24.013 57.0145C23.6006 56.9836 23.2899 56.989 22.92 57.0234L22.9144 57.0239C22.7145 57.0425 22.4957 57.0628 22.5731 57.2476C22.6152 57.3483 22.675 57.451 22.735 57.554C22.8908 57.8212 23.0476 58.0902 22.8981 58.3309C22.3209 59.2606 21.7056 59.8634 20.6854 60.6086C20.3816 60.8304 19.9745 60.855 19.6515 60.6624C18.5498 60.0058 17.8045 59.3134 16.6697 57.9554C16.5362 57.7958 16.4565 57.5969 16.4446 57.3892C16.4173 56.9126 16.415 56.5686 16.4425 56.1429C16.455 55.9506 16.416 55.7562 16.3259 55.5858C13.5052 50.2485 12.1184 46.9742 10.4429 41.0119C10.3686 40.7475 10.4057 40.4615 10.5532 40.2298C11.6331 38.5334 12.6868 37.597 14.7178 36.3155C14.9955 36.1404 15.3447 36.1174 15.6431 36.2541C18.5449 37.5837 19.2636 38.4416 20.4778 39.8908C20.5439 39.9696 20.6114 40.0502 20.6808 40.1327C20.7826 40.2537 20.8551 40.397 20.8913 40.551L21.2082 41.8978C22.4432 46.0413 24.078 48.4541 27.7776 53.0866C28.0683 53.4506 28.0722 53.9686 27.7838 54.3344L25.0073 57.8558C24.7227 58.2168 24.8413 58.7348 25.2914 58.8279C25.4555 58.8618 25.6387 58.8923 25.8477 58.9226C26.1477 58.9663 26.4063 58.7169 26.1902 58.5045C26.0127 58.33 25.9215 58.0091 26.0928 57.8286L28.6199 55.1648C28.958 54.8085 29.5047 54.7504 29.9101 55.0278L34.4407 58.1277C34.4854 58.1582 34.5333 58.1855 34.5823 58.2084L35.2332 58.5132C38.7336 60.1524 41.041 61.233 42.9032 61.8559C43.3264 61.9974 43.6223 62.3873 43.6223 62.8336V71.4613C43.6223 72.1749 42.8963 72.6588 42.2377 72.3844L41.6876 72.1552C41.4942 72.0746 41.2798 72.0558 41.0767 72.1075C39.4265 72.5276 38.3247 73.1147 36.5759 74.2781C36.326 74.4443 36.0152 74.4923 35.7277 74.4061L34.5446 74.0512C34.3981 74.0072 34.243 73.9967 34.0926 74.0246C33.6101 74.1142 33.2708 74.2112 32.8702 74.3699C32.6078 74.4739 32.3146 74.4769 32.0566 74.3623L31.9274 74.3049C31.7309 74.2175 31.5112 74.1958 31.3014 74.2432C30.4739 74.4302 29.86 74.5786 28.8722 74.9273C28.725 74.9793 28.5677 74.9982 28.4128 74.9791C28.0021 74.9285 27.6998 74.8776 27.3248 74.7152C27.0943 74.6154 26.8402 74.5832 26.5912 74.6167C26.186 74.6711 25.7902 74.6441 25.1908 74.5652C25.0787 74.5505 24.9706 74.5145 24.8677 74.4677C24.5561 74.326 24.2854 74.2642 23.9015 74.2079C23.7218 74.1816 23.5518 74.1097 23.4071 73.9999C23.1878 73.8337 22.9874 73.696 22.7373 73.5409C22.4286 73.3495 22.0415 73.3627 21.7202 73.532C21.3901 73.7059 21.0881 73.8281 20.6548 73.956C20.5901 73.9751 20.523 73.9869 20.4558 73.9919C19.0421 74.0959 18.1186 74.1058 16.4529 74.0016C16.2784 73.9907 16.1095 73.9333 15.964 73.8363L15.8702 73.7738C15.712 73.6683 15.5266 73.6102 15.3365 73.6059C12.8364 73.5491 11.3494 73.4685 8.8386 73.2485C8.77729 73.2431 8.71561 73.232 8.65645 73.215C8.05184 73.0414 7.68518 72.8847 7.16117 72.5978C7.04035 72.5316 6.90774 72.4884 6.77047 72.4769C6.29968 72.4376 5.95683 72.4425 5.4823 72.4756C5.305 72.4881 5.12746 72.4546 4.96567 72.3811C3.68545 71.799 2.50151 71.5394 0.468286 71.1012C0.356693 71.0628 0.267342 71.0124 0.184378 70.9394C-0.093981 70.6945 -0.0228696 70.2652 0.171502 69.9495C0.204042 69.8966 0.239527 69.8369 0.279274 69.7678C0.396919 69.5632 0.372522 69.3074 0.225089 69.1231L0.161729 69.0439C0.119355 68.991 0.0962691 68.9251 0.0962691 68.8573C0.0962691 68.7052 0.209866 68.5773 0.361229 68.5618ZM18.8774 33.0286C17.8638 33.5802 17.2827 34.0743 16.7286 34.8188C16.4493 35.194 16.5116 35.7184 16.8638 36.0263C17.5921 36.6632 18.5613 37.3694 20.3678 38.6316C20.5502 38.759 20.8225 38.8597 21.0131 38.7449C21.2271 38.616 21.1501 38.3307 21.0454 38.1039L20.1541 36.1726C20.113 36.0837 20.0845 35.9894 20.0726 35.8923C20.0351 35.5866 20.023 35.2505 20.0848 34.0421C20.0896 33.9476 20.0819 33.8522 20.0576 33.7607C19.9795 33.4663 19.8922 33.2666 19.7625 33.1093C19.5516 32.8534 19.1687 32.87 18.8774 33.0286ZM50.1326 9.68349V6.70791C50.1326 5.82134 49.0644 5.37324 48.4319 5.99446L45.2111 9.15768C45.0277 9.33786 44.9243 9.58421 44.9243 9.84134C44.9243 10.384 45.3745 10.8183 45.9168 10.799L49.1683 10.6829C49.7063 10.6636 50.1326 10.2219 50.1326 9.68349ZM51.4508 10.0046L51.593 1.04201C51.6024 0.449452 52.3126 0.195314 52.5709 0.728705C52.6137 0.817156 52.6828 0.916294 52.7626 0.973593C52.9961 1.14114 53.2058 1.22693 53.497 1.28813C53.7251 1.33607 53.9372 1.44407 54.1004 1.61051C54.5257 2.04432 54.8498 2.27718 55.3086 2.53213C55.4509 2.61118 55.6119 2.65005 55.7747 2.65005H56.8849C57.1404 2.65005 57.379 2.77776 57.5208 2.99039L57.6524 3.18785C57.8519 3.487 58.2751 3.52891 58.5294 3.27468C58.6838 3.1202 58.913 3.06766 59.1194 3.13943L60.8012 3.72442C60.8808 3.75209 60.9638 3.76992 61.0478 3.77576C61.4847 3.80611 61.8102 3.79588 62.1316 3.72955C62.4955 3.65444 62.8742 3.89788 62.8742 4.26947C62.8742 4.55648 63.1068 4.78914 63.3938 4.78914H63.457C63.6191 4.78914 63.7739 4.85663 63.8841 4.9754L64.7497 5.90758C64.8617 6.02813 65.0022 6.11906 65.1573 6.17372C66.4425 6.62647 67.2656 7.01342 68.3922 7.7716C68.7164 7.98976 69.1365 8.01164 69.4746 7.81586C70.0678 7.47245 70.8146 7.82202 71.0575 8.46292C71.2658 9.01259 71.5223 9.46423 71.8402 9.97002C72.1413 10.449 71.9033 11.0803 71.3581 11.2317C71.0119 11.3279 70.7662 11.634 70.7375 11.9923C70.6285 13.3527 70.4638 14.036 70.1291 14.6286C70.0171 14.8268 69.8246 14.9663 69.6022 15.0149C69.0478 15.1361 68.3955 15.1754 67.4184 15.1941C66.951 15.2031 66.563 15.5605 66.5219 16.0262C66.4489 16.8538 65.3848 17.1635 64.834 16.5413C63.1318 14.6188 61.8405 13.903 59.9518 13.6534C59.7945 13.6326 59.6425 13.5786 59.5098 13.4916C58.0134 12.5113 57.0585 11.9569 55.4634 11.1316C55.3221 11.0585 55.1648 11.0204 55.0057 11.0204H52.4506C51.8921 11.0204 51.4419 10.563 51.4508 10.0046ZM73.9909 11.9505H72.6077C72.0968 11.9505 71.6675 12.3356 71.6152 12.8438C71.5253 13.7184 71.4616 14.4267 71.3997 15.2949C71.3623 15.82 70.9278 16.2267 70.4016 16.2451C69.3195 16.2829 68.6283 16.3904 67.8964 16.6242C67.6006 16.7187 67.3695 16.9591 67.3112 17.2642C67.2103 17.7919 67.2498 18.2077 67.3567 18.7532C67.4022 18.9852 67.5377 19.1869 67.709 19.3498C68.2726 19.8855 68.8339 20.7572 69.8995 22.662C69.9277 22.7126 69.9522 22.7671 69.9715 22.8218C70.5064 24.3407 70.9544 25.1806 71.8295 26.2404C72.0411 26.4966 72.1239 26.8377 72.0393 27.1591L71.8281 27.9617C71.753 28.2473 71.8079 28.5516 71.9782 28.7929L72.4136 29.4097C72.6601 29.7588 72.6398 30.2232 72.5081 30.6297C72.3254 31.1935 72.235 32.0519 72.1797 33.6534C72.1762 33.7542 72.1575 33.855 72.1253 33.9505C72.0716 34.1097 72.0259 34.2536 71.9852 34.3918C71.8077 34.9954 72.2944 35.5736 72.9236 35.5736H80.6061C81.1392 35.5736 81.4591 34.9815 81.167 34.5356C80.8154 33.999 81.2718 33.4878 81.7504 33.9149C82.0928 34.2205 82.5071 34.6264 83.0373 35.1779C83.1083 35.2517 83.207 35.2945 83.3094 35.2945C83.5565 35.2945 83.736 35.0595 83.671 34.8211L83.547 34.3664C83.5298 34.3034 83.5211 34.2384 83.5211 34.1731V32.7978C83.5211 32.5492 83.425 32.3121 83.2686 32.1188C82.991 31.7759 82.8272 31.4824 82.6387 31.0377C82.6066 30.962 82.5849 30.8805 82.5731 30.7991C81.8594 25.8806 81.2559 23.5414 79.6445 22.1276C79.4025 21.9154 79.2429 21.6181 79.2429 21.2962V20.1702C79.2429 20.0244 79.2107 19.8795 79.1489 19.7475C77.8113 16.8923 76.8241 15.1754 74.7989 12.3635C74.612 12.1041 74.3106 11.9505 73.9909 11.9505ZM44.4907 64.1893C44.4952 64.5228 44.496 64.8408 44.4934 65.1704C44.4875 65.9221 45.3023 66.4501 45.8299 65.9146C45.9899 65.7521 46.1434 65.5645 46.3006 65.3378C46.4972 65.0543 46.5058 64.6809 46.3316 64.3831C46.0882 63.9671 45.8604 63.6646 45.6029 63.4412C45.1135 63.0164 44.4819 63.5413 44.4907 64.1893ZM47.8059 61.8008H46.7351C46.1242 61.8008 45.6112 62.3653 45.8708 62.9182C46.0374 63.2729 46.2787 63.5405 46.6522 63.7906C46.9031 63.9585 47.227 63.9683 47.4968 63.833C47.9925 63.5843 48.3342 63.3277 48.5881 62.987C48.9809 62.4596 48.4636 61.8008 47.8059 61.8008ZM49.9466 64.5796V65.4756C49.9466 66.1178 49.2994 66.6418 48.8176 66.2171C48.619 66.0419 48.4309 65.8065 48.2309 65.4781C48.0718 65.2169 48.0594 64.8894 48.205 64.6205C48.4188 64.2258 48.6488 63.9488 48.9669 63.7783C49.4577 63.5153 49.9466 64.0227 49.9466 64.5796ZM44.8189 67.3608C45.5735 66.7369 46.1195 66.321 46.8029 65.9641C47.1292 65.7937 47.5257 65.8468 47.8057 66.0858C49.6226 67.6364 49.9749 68.8079 50.102 70.8029C50.1247 71.1594 49.9487 71.502 49.6393 71.6806C48.44 72.3729 47.3828 72.6846 45.5874 72.9239C45.398 72.9491 45.2015 72.9228 45.0378 72.8241C44.7513 72.6516 44.6057 72.4702 44.5002 72.163C44.4704 72.0765 44.4593 71.9848 44.4593 71.8933V68.1275C44.4593 67.8312 44.5906 67.5495 44.8189 67.3608ZM74.5335 36.3336L82.9251 36.4875C83.4261 36.4967 83.859 36.8747 83.872 37.3755C83.8769 37.561 83.8711 37.7304 83.8532 37.9044C83.8299 38.1319 83.9088 38.3612 84.0845 38.5077C84.2544 38.6493 84.3423 38.8702 84.2935 39.0859C84.0994 39.9431 83.7046 40.3303 82.9116 40.6072C82.5817 40.7224 82.3659 41.0513 82.4345 41.3939L82.491 41.6768C82.5428 41.9355 82.3449 42.1769 82.0811 42.1769C81.9357 42.1769 81.7999 42.2524 81.7265 42.378C80.9524 43.7018 80.6744 44.8299 80.4159 46.8351C80.3785 47.1248 80.219 47.3854 79.976 47.5474L79.3614 47.9571C79.11 48.1247 78.9476 48.3973 78.9202 48.6982C78.8494 49.4729 78.802 50.0498 78.7842 50.869C78.7783 51.1389 78.6679 51.3965 78.4728 51.5831L76.9205 53.0679C76.7405 53.24 76.6388 53.4782 76.6388 53.7272V54.127C76.6388 54.41 76.4094 54.6394 76.1264 54.6394C75.8832 54.6394 75.6774 54.8118 75.6059 55.0442C75.2674 56.1434 74.5422 56.7679 73.2323 57.6305C72.9769 57.7987 72.8219 58.0752 72.7543 58.3735C72.656 58.808 72.4733 59.004 72.0759 59.0876C72.0182 59.0997 71.9586 59.1037 71.8997 59.1005C71.347 59.0711 71.1939 58.8591 71.0585 58.3596C70.7724 56.8835 70.5721 56.0768 70.2095 55.2165C70.1033 54.9646 69.8891 54.7749 69.6283 54.6929C69.0112 54.4987 68.4267 54.344 67.886 54.2009C66.8751 53.9335 66.0173 53.7065 65.3853 53.3374C64.9946 53.0604 65.5267 51.8872 65.8201 51.5087C67.7251 49.0515 68.5845 47.3706 69.7513 43.8685C69.8152 43.6767 69.9382 43.5086 70.1027 43.3911C70.3523 43.2127 70.5005 42.9248 70.5005 42.618V41.4116C70.5005 41.1845 70.5778 40.9642 70.7196 40.7869L71.7694 39.4746C71.9113 39.2973 71.9886 39.077 71.9886 38.8499V37.9454C71.9886 37.4505 72.5418 37.1568 72.9517 37.4341L73.3879 37.7292C73.8219 38.0228 74.3548 37.5288 74.0948 37.0738C73.9043 36.7404 74.1496 36.3265 74.5335 36.3336ZM68.7215 54.999C67.7027 54.7191 66.987 54.5226 66.2462 54.3817C65.5384 54.247 64.9852 54.9411 65.2274 55.6197C65.5333 56.4765 65.7845 57.0759 66.0978 57.6663C66.1778 57.8169 66.2981 57.9426 66.4454 58.0284C67.1674 58.4491 67.8085 58.6949 68.8456 58.9158C69.3936 59.0325 69.9277 58.6477 69.9545 58.088C70.0063 57.0031 69.7949 56.3128 69.307 55.4474C69.1815 55.225 68.9678 55.0667 68.7215 54.999ZM63.3321 53.797L59.1058 57.495C59.0147 57.5747 58.9093 57.6365 58.7971 57.6819C57.838 58.0704 57.1956 58.6095 56.1502 59.6036C56.0459 59.7027 55.9209 59.7789 55.7854 59.8271C54.5198 60.2772 53.7718 60.663 52.7251 61.4186C52.5507 61.5445 52.3415 61.6148 52.1264 61.6148H51.8004C51.2416 61.6148 50.7912 62.0727 50.8005 62.6314L50.9629 72.375C50.9672 72.632 51.0638 72.8854 51.2654 73.0447C51.5567 73.2749 51.8577 73.3982 52.3653 73.5012C52.4265 73.5136 52.4891 73.5193 52.5516 73.5193H53.7553C53.8811 73.5193 54.0057 73.5436 54.1235 73.5881C54.5898 73.7644 54.9315 73.8567 55.466 73.9563C55.5677 73.9753 55.6722 73.9775 55.7746 73.9629C56.4014 73.8737 56.7886 73.7851 57.2985 73.5908C57.4188 73.5449 57.5461 73.5193 57.6749 73.5193H62.016C62.3229 73.5193 62.6073 73.6658 62.8184 73.8886C63.4032 74.5057 63.9827 74.7343 65.0299 74.9024C65.0804 74.9105 65.1319 74.9144 65.1831 74.9144H74.6857C78.2141 74.4678 80.3241 74.2924 84.0172 74.0954C84.238 74.0836 84.4601 74.0085 84.5994 73.8367C84.8358 73.5452 84.7998 73.2988 84.5012 72.9369C84.4125 72.8294 84.2825 72.7658 84.1442 72.7485L83.6605 72.6881C83.3481 72.649 83.2241 72.2625 83.4554 72.049C83.6928 71.8298 83.555 71.4329 83.2328 71.4081L81.8873 71.3046C81.7385 71.2932 81.5891 71.3166 81.451 71.3731L79.7969 72.0498C79.6767 72.099 79.5481 72.1242 79.4183 72.1242H76.9872C76.7809 72.1242 76.5796 71.9898 76.5828 71.7835C76.5858 71.5937 76.7638 71.4628 76.9527 71.4443C78.9564 71.2486 79.9532 70.9224 81.661 70.3572C82.2539 70.2323 82.8242 70.117 83.3695 70.0067C86.9638 69.2798 89.4671 68.7735 90.1377 67.2255C90.1971 67.0886 90.1872 66.9335 90.1318 66.7949C89.934 66.3006 89.1425 66.1726 88.6151 66.2453C88.5629 66.2525 88.5081 66.259 88.4503 66.265C86.9033 66.2757 85.9413 66.2326 84.0791 66.079C81.5201 65.6598 80.2773 65.345 78.3703 64.7324C78.2708 64.7004 78.1666 64.6839 78.0622 64.6839H73.548C73.4391 64.6839 73.3306 64.6661 73.2276 64.631C72.2766 64.3071 71.7816 64.1109 71.1919 63.8203C71.104 63.777 71.0075 63.7538 70.9095 63.7538C70.4328 63.7538 70.1306 64.265 70.3603 64.6827L70.3735 64.7067C70.6033 65.1245 70.3139 65.6385 69.8374 65.6553C68.3213 65.7088 67.3152 65.7051 66.0115 65.6294C65.8449 65.6197 65.6825 65.5683 65.5434 65.476C65.0741 65.1643 64.7959 64.9123 64.564 64.5965C64.4162 64.3952 64.5752 64.1259 64.8249 64.1259C64.9867 64.1259 65.1244 64.0078 65.149 63.8478L65.2194 63.3904C65.2647 63.0956 65.4587 62.8445 65.7328 62.727L65.9519 62.6333L66.1091 62.5661C67.2306 62.0869 68.0949 61.7177 69.1359 61.1289C69.611 60.8602 69.698 60.2204 69.3308 59.8165C69.1857 59.6569 68.9863 59.5572 68.772 59.5324C67.6856 59.4066 66.9505 59.2352 65.8818 58.74C65.6234 58.6202 65.4351 58.3872 65.3595 58.1126C64.523 55.0773 64.0511 53.6762 63.5604 53.6776C63.4721 53.6779 63.3985 53.7388 63.3321 53.797ZM78.6063 66.7331L76.4649 66.8188C76.3952 66.8216 76.3262 66.8342 76.2599 66.8563L75.9574 66.9571C75.4659 67.121 75.3998 67.7891 75.8496 68.0461C75.9401 68.0978 76.0426 68.1251 76.1469 68.1251H76.5458H77.0776C77.2175 68.1251 77.3559 68.0957 77.4837 68.0389L78.0312 67.7956C78.0944 67.7674 78.1623 67.7512 78.2314 67.7475L78.6522 67.7254C79.2135 67.6959 79.3016 66.9035 78.7606 66.7513C78.7104 66.7372 78.6584 66.7311 78.6063 66.7331Z" fill="#E6E9F2"/>
</svg>
