<svg width="54" height="24" viewBox="0 0 54 24" fill="none" xmlns="http://www.w3.org/2000/svg">
<g clip-path="url(#clip0)">
<path d="M53.4833 0.23114C53.3292 0.0770466 53.0982 0 52.9057 0H11.898C5.31367 0 0 5.31621 0 11.8652V23.1525C0 23.6148 0.385049 24 0.847107 24H41.8548C48.4006 24 53.7143 18.6838 53.7143 12.0963V0.847512C53.7143 0.616372 53.6373 0.385233 53.4833 0.23114V0.23114Z" fill="#232221"/>
<path d="M7.43144 22.305H1.65572V11.8652C1.65572 6.24076 6.23779 1.65649 11.8595 1.65649H13.2457C9.62622 3.8138 7.43144 7.70465 7.43144 11.8652V22.305Z" fill="white"/>
<path d="M14.8629 22.305H9.08716V11.8652C9.08716 6.24076 13.6692 1.65649 19.2909 1.65649H20.6771C19.83 2.1573 19.0599 2.77367 18.3668 3.46709C16.1335 5.70144 14.9014 8.70625 14.9014 11.8652L14.8629 22.305Z" fill="white"/>
<path d="M16.5571 22.305V11.8652C16.5571 6.24076 21.1007 1.69502 26.7609 1.65649H37.1957V12.0963C37.1957 17.7207 32.6521 22.305 26.9919 22.305H16.5571Z" fill="white"/>
<path d="M33.0372 22.305C36.6181 20.1477 38.8514 16.2953 38.8514 12.0963V1.65649H44.6271V12.0963C44.6271 17.7207 40.0836 22.305 34.4234 22.305H33.0372Z" fill="#B22028"/>
<path d="M49.0552 19.3387C47.1299 21.2648 44.5501 22.3435 41.8548 22.3435H40.5071C44.0881 20.1862 46.3213 16.3339 46.3213 12.1348V1.65649H52.0971V12.0963C52.0586 14.8315 50.9804 17.4125 49.0552 19.3387Z" fill="white"/>
</g>
<defs>
<clipPath id="clip0">
<rect width="53.7143" height="24" fill="white"/>
</clipPath>
</defs>
</svg>
